<svg version="1.2" xmlns="http://www.w3.org/2000/svg" viewBox="0 0 208 206" width="208" height="206"><defs><clipPath clipPathUnits="userSpaceOnUse" id="cp1"><path d="m-667-377h1600v6062h-1600z"/></clipPath></defs><style>.a{fill:#78cdd7}</style><g clip-path="url(#cp1)"><path class="a" d="m198.2 52.6c-8.3-14.2-20.9-25.6-34.9-34-14.4-8.7-31-15.1-47.8-17.1-9.5-1.1-19.1-0.8-28.5 0.4-9.4 1.2-18.2 3.4-26.6 8.1-7.9 4.5-15.3 10.4-22.1 16.4-6.1 5.2-11.5 11.3-15.8 18.1-9 14.2-12.6 31.3-11.5 48 1.3 18.9 7.7 37.4 17.5 53.5 8.9 14.8 21.3 26.4 37.4 33.2 16.7 7 35.5 8.4 53.1 4 17-4.3 33.5-12.3 45.1-25.8 10.9-12.8 18.5-28.9 22.5-45.3 4.1-17.1 3.4-35.9-5.3-51.5-8.2-14.8-22.8-25.8-37.7-33.1-15.4-7.7-32.3-12.2-49.6-9.7-17.9 2.7-36.3 10.6-49.4 23.3-6.2 6-11.6 13.2-14.8 21.3-3 7.7-3.6 16.2-3 24.3 1.1 16.3 6.2 33.3 15 47.1 8.8 13.8 21.8 24 36.9 30.2 17.1 7 34.9 7.1 51.5-1.2 13.6-6.7 24.7-17.3 30.5-31.5 10-24.6 4.1-57-17.2-73.8-24.4-19.2-70.8-24.4-86 8.9-11.8 26 0.4 63.6 27.2 75.3 14 6.1 32.1 6.4 45.1-2.4 12.8-8.7 19.7-24.5 17.5-39.8-2.1-14.1-12-24.6-25.3-29-10.6-3.4-23.4-4.3-33.8 0-12.8 5.1-16.9 17.3-14.7 30.2 2.4 14.2 13.2 27 28.1 28.4 12.7 1.2 27-6.1 25.8-20.4-0.9-10.7-9.3-22.4-20.8-22.9-6.8-0.3-12.7 4-14 10.8-1.7 8.8 4.7 13.9 12 16.9 4.8 2 6.9-5.8 2.1-7.8-2.8-1.2-6.3-2.8-6.3-6.3 0-2.7 1.6-5 4.3-5.4 3.9-0.6 7.4 1.7 9.8 4.5 5.4 6 7.6 17-1.4 20.8-12.1 5.1-24.3-1.2-29.4-12.8-4-8.9-4.7-21.7 4.8-27.2 8-4.7 18.8-4.2 27.5-2 11 2.7 19.9 9.5 22.8 20.9 3 12.5-2.4 26.8-13.1 34.1-10.9 7.4-26.4 7.2-38.2 1.8-22.2-10.2-33.3-43.4-22.2-65.1 13.9-27.4 54.5-21.4 74.3-4.2 17.6 15.2 22 42.5 13.5 63.6-4.9 12.3-14.8 21.2-26.5 27.2-14.5 7.4-29.9 6.9-44.8 0.9-13.1-5.2-24.6-14.1-32.4-25.9-7.8-12-12.7-26.6-14.2-40.8-0.8-7.1-0.8-14.4 1.1-21.3 2.1-7.3 6.6-13.8 11.7-19.3 10.9-11.7 26-18.7 41.5-22.2 15.3-3.6 29.9-1.2 44.2 4.8 13.7 5.8 26.9 14.4 36.1 26.2 19.6 24.9 10.4 61.2-5.4 85.5-3.9 5.9-8.5 11.4-13.9 16-6 5.2-13.3 8.7-20.6 11.6-15.4 6.1-31.9 8.3-48.2 4.7-14.4-3.3-27.6-10.7-37.5-21.7-10.5-11.8-17.7-27.4-21.8-42.5-4.1-15.3-4.9-31.5-0.3-46.7 4.2-14.1 13.2-25.6 24.4-34.9 6-4.9 12.1-9.8 19-13.5 7.4-4.1 15.5-5.8 23.8-6.8 16.2-1.8 31.7-0.2 47 5.1 13.7 4.8 26.8 12 37.7 21.5 10.7 9.3 20.1 21.3 23.1 35.4 1.7 7.8 1.9 15.9 1.9 23.9 0.1 8.5-0.5 16.4-2.9 24.5-4.7 16.2-12.4 30.6-23.6 43.2-9.9 11-21.9 22.7-35.8 28.5-13.3 5.6-28.4 6.3-42.6 4.3-14.1-2-28.9-6.5-40.8-14.6-6.3-4.3-11.8-9.8-16.8-15.7-5-5.8-10.1-12.2-13.9-19-3.6-6.5-4.7-13.8-7.4-20.7-2.4-5.8-7.4-12.1-7.1-18.7 0.3-5.2-7.8-5.2-8.1 0-0.4 8.3 5.4 15.1 8 22.6 3 8.6 4.8 17.1 10 24.8 9.8 14.4 21.3 28.6 36.7 37.2 14.4 7.8 31.3 12 47.5 13 16.3 1 33.4-1.8 47.3-10.7 15.1-9.8 28.6-23.3 38.8-38 5.1-7.3 8.8-15.1 12-23.4 3.8-9.7 6.6-19.7 6.8-30.1 0.3-17.2 0.1-35-8.9-50.2z"/></g></svg>