<svg version="1.2" xmlns="http://www.w3.org/2000/svg" viewBox="0 0 96 96" width="96" height="96"><defs><clipPath clipPathUnits="userSpaceOnUse" id="cp1"><path d="m-752-5813h1600v6062h-1600z"/></clipPath></defs><style>.a{fill:#fff}</style><g clip-path="url(#cp1)"><path fill-rule="evenodd" class="a" d="m95 67.7c-0.4 7.6-2.1 14.3-7.7 19.8-5.5 5.6-12.2 7.3-19.8 7.7-7.8 0.4-31.2 0.4-39 0-7.6-0.4-14.3-2.1-19.8-7.7-5.6-5.5-7.3-12.2-7.7-19.8-0.4-7.8-0.4-31.2 0-39 0.4-7.6 2.1-14.3 7.7-19.8 5.5-5.6 12.2-7.3 19.8-7.6 7.8-0.5 31.2-0.5 39 0 7.6 0.3 14.3 2.1 19.8 7.6 5.6 5.5 7.3 12.2 7.7 19.8 0.4 7.8 0.4 31.2 0 39zm-8.2-19.5c0-6.9 0.5-21.6-1.9-27.9-1.7-4.1-4.9-7.3-9-9-6.2-2.4-21-1.9-27.9-1.9-6.9 0-21.6-0.5-27.9 1.9-4.1 1.7-7.3 4.9-9 9-2.4 6.2-1.9 21-1.9 27.9 0 6.9-0.5 21.7 1.9 27.9 1.7 4.2 4.9 7.4 9 9 6.2 2.4 21 1.9 27.9 1.9 6.9 0 21.7 0.6 27.9-1.9 4.1-1.7 7.3-4.9 9-9 2.4-6.2 1.9-21 1.9-27.9zm-7.9-25.2c0 3.1-2.5 5.6-5.6 5.6-3.2 0-5.7-2.5-5.7-5.6 0-3.2 2.5-5.7 5.7-5.7 3.1 0 5.6 2.5 5.6 5.7zm-6.6 25.2c0 13.4-10.9 24.3-24.3 24.3-13.4 0-24.2-10.9-24.2-24.3 0-13.4 10.8-24.2 24.2-24.2 13.4 0 24.3 10.8 24.3 24.2zm-8.5 0c0-8.7-7.1-15.7-15.8-15.7-8.7 0-15.8 7-15.8 15.7 0 8.7 7.1 15.8 15.8 15.8 8.7 0 15.8-7.1 15.8-15.8z"/></g></svg>