<svg version="1.2" xmlns="http://www.w3.org/2000/svg" viewBox="0 0 96 96" width="96" height="96"><defs><clipPath clipPathUnits="userSpaceOnUse" id="cp1"><path d="m-544-5813h1600v6062h-1600z"/></clipPath></defs><style>.a{fill:#fff}</style><g clip-path="url(#cp1)"><path fill-rule="evenodd" class="a" d="m95.6 7.7v81c0 3.7-3 6.8-6.8 6.8h-81.1c-3.7 0-6.7-3.1-6.7-6.8v-81c0-3.7 3-6.8 6.7-6.8h81.1c3.8 0 6.8 3.1 6.8 6.8zm-66 74.3v-45.1h-14v45.1zm1.1-59.4c0-4.5-3.7-8.2-8.2-8.2-4.5 0-8.1 3.7-8.1 8.2 0 4.4 3.6 8.1 8.1 8.1 4.5 0 8.2-3.6 8.2-8.1zm51.4 34.6c0-12.1-2.6-21.5-16.8-21.5-6.8 0-11.4 3.8-13.3 7.3h-0.2v-6.1h-13.4v45.1h14v-22.3c0-5.9 1.1-11.6 8.4-11.6 7.2 0 7.3 6.7 7.3 11.9v22h14z"/></g></svg>