<svg version="1.2" xmlns="http://www.w3.org/2000/svg" viewBox="0 0 475 676" width="475" height="676"><defs><clipPath clipPathUnits="userSpaceOnUse" id="cp1"><path d="m-1125-1879h1600v6062h-1600z"/></clipPath></defs><style>.a{fill:#fffffa}</style><g clip-path="url(#cp1)"><path fill-rule="evenodd" class="a" d="m22.3 189.2c22.4-58.2 61-110.1 110.6-147.3 45.4-34.1 92.7-47.6 133-38.3 57.8 13.5 89.7 68.3 103.6 99.7 10.1 22.9 17.5 47.1 24.6 70.5 6.3 21 12.9 42.7 21.4 62.9 11.9 28.4 39 78.1 86.9 92.2 26.4 7.9 54.9 4 85.1-0.2 34.8-4.7 70.7-9.6 103.9 4.8 35.9 15.6 58.5 49.4 77.6 83.6 24.7 44.1 55.5 109.7 39.4 170.2-13.7 51.4-78.1 89-126.6 88.3-40.4-0.5-77-17.7-112.4-34.2l-6.9-3.2c-35.4-16.5-73.1-32.1-111.3-27-18.3 2.4-35.7 9.4-54 16.9-13.9 5.6-28.2 11.4-43.2 15.2-62 15.5-135-5.2-205.4-58.5-43.7-33.1-78.1-70.2-102.2-110.5-40.9-68.4-55.3-153-39.4-232.2 3.6-18 8.7-35.7 15.3-52.9zm764.6 399.5q1.3-3.2 2.1-6.6c14.3-53.4-14.5-114.1-37.5-155.2-17.4-31.1-37.6-61.8-68-75-28.1-12.2-59.8-7.9-93.3-3.3-30.9 4.2-62.9 8.6-93.5-0.4-41.4-12.3-76.8-49.1-99.7-103.7-8.9-21.2-15.6-43.4-22.1-64.9-6.9-22.8-14.1-46.4-23.7-68.2-21.1-47.7-53.8-79.8-89.8-88.2-46.5-10.9-92.9 17.1-116.5 34.7-60.3 45.2-103.4 113.8-118.3 188.2-14.9 74.3-1.4 153.7 37 217.9 22.8 38.1 55.4 73.3 97.1 104.8 37.9 28.7 112.8 74 188.5 55 13.6-3.4 26.6-8.7 40.4-14.3 18.8-7.6 38.1-15.4 58.9-18.2 43.6-5.8 86.1 11.8 122.4 28.7l6.9 3.2c33.6 15.7 68.2 31.9 104.2 32.4 38.2 0.5 90.1-28.2 104.9-66.9z"/></g></svg>