<svg version="1.2" xmlns="http://www.w3.org/2000/svg" viewBox="0 0 820 317" width="820" height="317"><defs><clipPath clipPathUnits="userSpaceOnUse" id="cp1"><path d="m-780 0h1600v6062h-1600z"/></clipPath></defs><style>.a{fill:#44a1a0}</style><g clip-path="url(#cp1)"><path fill-rule="evenodd" class="a" d="m25.6-247.5c25.9-67.4 70.7-127.6 128.2-170.7 52.6-39.5 107.3-55.2 154.1-44.3 66.9 15.6 103.9 79 120 115.5 11.8 26.6 20.3 54.6 28.5 81.7 7.4 24.3 15 49.4 24.8 72.9 13.8 32.8 45.2 90.4 100.7 106.9 30.7 9 63.7 4.5 98.6-0.3 40.3-5.5 82-11.2 120.5 5.5 41.6 18.1 67.8 57.3 89.9 97 28.6 51.1 64.3 127.1 45.7 197.1-15.9 59.6-90.6 103.1-146.8 102.4-46.7-0.6-89.2-20.5-130.3-39.7l-7.9-3.7c-41-19-84.7-37.1-129-31.3-21.2 2.8-41.3 11-62.6 19.6-16.1 6.5-32.7 13.3-50 17.6-71.9 18-156.4-6-238-67.7-50.7-38.4-90.6-81.4-118.5-128.1-47.4-79.3-64.1-177.3-45.7-269.1 4.2-20.8 10.2-41.4 17.8-61.3zm886.1 462.9q1.4-3.7 2.4-7.5c16.5-61.9-16.9-132.3-43.4-179.9-20.2-36.1-43.7-71.6-78.9-87-32.6-14.1-69.3-9.1-108.1-3.8-35.9 4.9-72.9 10-108.4-0.5-47.9-14.1-89-56.8-115.5-120.2-10.3-24.5-18.1-50.2-25.6-75.1-8.1-26.4-16.4-53.7-27.5-79-24.4-55.3-62.4-92.6-104.1-102.3-53.9-12.5-107.7 19.8-134.9 40.3-69.9 52.4-119.9 131.9-137.1 218-17.3 86.1-1.6 178.2 42.9 252.6 26.3 44.1 64.2 84.9 112.5 121.5 43.9 33.2 130.7 85.7 218.3 63.7 15.8-4 30.9-10.1 47-16.6 21.7-8.8 44.1-17.9 68.2-21.1 50.5-6.7 99.7 13.7 141.9 33.3l8 3.7c38.8 18.1 79 36.9 120.7 37.5 44.2 0.6 104.3-32.7 121.6-77.6z"/></g></svg>