<svg version="1.2" xmlns="http://www.w3.org/2000/svg" viewBox="0 0 474 783" width="474" height="783"><defs><clipPath clipPathUnits="userSpaceOnUse" id="cp1"><path d="m0-850h1600v6062h-1600z"/></clipPath></defs><style>.a{fill:#fffffa}</style><g clip-path="url(#cp1)"><path fill-rule="evenodd" class="a" d="m-442.5 219c25.9-67.4 70.7-127.7 128.2-170.7 52.6-39.5 107.4-55.2 154.1-44.4 67 15.6 104 79.1 120.1 115.6 11.7 26.5 20.2 54.5 28.4 81.6 7.4 24.3 15 49.5 24.8 72.9 13.8 32.9 45.2 90.5 100.7 106.9 30.7 9.1 63.7 4.5 98.7-0.2 40.3-5.5 81.9-11.2 120.4 5.5 41.6 18.1 67.8 57.3 90 96.9 28.5 51.1 64.3 127.2 45.6 197.2-15.9 59.6-90.6 103.1-146.8 102.4-46.7-0.7-89.2-20.5-130.3-39.7l-7.9-3.7c-41-19.1-84.7-37.2-129-31.3-21.2 2.8-41.3 11-62.6 19.6-16 6.5-32.6 13.2-50 17.6-71.9 18-156.4-6-238-67.8-50.7-38.3-90.5-81.4-118.4-128-47.5-79.3-64.1-177.4-45.8-269.1 4.2-20.9 10.2-41.4 17.8-61.3zm886.1 462.9q1.4-3.7 2.4-7.6c16.6-61.9-16.9-132.3-43.4-179.9-20.2-36.1-43.7-71.6-78.9-86.9-32.6-14.1-69.3-9.1-108.1-3.8-35.8 4.9-72.9 10-108.3-0.5-48-14.2-89.1-56.9-115.6-120.2-10.3-24.6-18.1-50.3-25.6-75.1-8-26.5-16.3-53.8-27.5-79.1-24.4-55.2-62.3-92.5-104-102.2-54-12.6-107.7 19.8-135 40.2-69.9 52.4-119.9 131.9-137.1 218.1-17.2 86.1-1.6 178.2 42.9 252.6 26.4 44 64.2 84.9 112.5 121.4 43.9 33.3 130.7 85.7 218.4 63.7 15.7-3.9 30.9-10.1 46.9-16.5 21.7-8.8 44.1-17.9 68.2-21.1 50.5-6.7 99.7 13.6 141.9 33.2l8 3.7c38.8 18.2 79 37 120.7 37.5 44.3 0.6 104.3-32.6 121.6-77.5z"/></g></svg>